<?xml version="1.0" encoding="UTF-8" standalone="no"?>
<!-- Created with Inkscape (http://www.inkscape.org/) -->

<svg
   xmlns="http://www.w3.org/2000/svg"
   xmlns:xlink="http://www.w3.org/1999/xlink"
   width="720"
   height="1008"
   version="1.1"
   style="fill:lightgray;stroke:black;stroke-width:1px">
  <title>eSCADA Others</title>
  <defs>
    <symbol id="reactor">
	  <title>电抗器</title>
		<path
		   style="fill:none"
		   d="M 36,47.5 36,60 m 0,-48 0,24 -12.50,0 M 36,48 A 12,12 0 1 0 24,36" />
    </symbol>
    <symbol id="arc-suppression-coil">
	  <title>消弧线圈</title>
		<rect
		   style="fill:none"
		   width="18"
		   height="36"
		   x="23"
		   y="14" />
		<path
		   style="fill:none;stroke-width:0.5px"
		   d="m 18,46 0,-6 28,-16 0,-6" />
		<path
		   style="fill:none"
		   d="m 32,8 0,6" />
		<path
		   style="fill:none"
		   d="m 32,56 0,-6" />
    </symbol>
    <symbol id="capacitor-bank">
	  <title>电容器组</title>
		<path
		   style="fill:none"
		   d="m 36,18 0,18" />
		<path
		   style="fill:none"
		   d="m 18,27 0,9 36,0 0,-9" />
    </symbol>
    <symbol id="trolley">
		<title>手车</title>
		<path
		   style="fill:none;"
		   d="m 18,0 0,13" />
		<path
		   style="fill:none;"
		   d="M 18,108 18,95" />
		<path
		   style="fill:none"
		   d="m 8,23 10,-5 10,5" />
		<path
		   style="fill:none"
		   d="m 8,18 10,-5 10,5" />
		<path
		   style="fill:none"
		   d="m 8,85 10,5 10,-5" />
		<path
		   style="fill:none"
		   d="m 8,90 10,5 10,-5" />
    </symbol>
    <symbol id="zero-sequence-current">
	  <title>零序电流</title>
		<circle 
			cx="36" cy="36" r="12"
			style="fill:none" />    
		<path
		   style="fill:none"
		   d="m 30,16 0,40" />
		<path
		   style="fill:none"
		   d="m 36,16 0,40" />
		<path
		   style="fill:none"
		   d="m 42,16 0,40" />
    </symbol>
    <symbol id="ct">
	  <title>电流互感器</title>
		<circle
		   r="6"
		   cy="9"
		   cx="12"
		   style="fill:none" />
		<path
		   style="fill:none"
		   d="m 12,0 0,18" />
		<path
		   style="fill:none;stroke-width:0.5px"
		   d="M 18,9 30,9" />
		<path
		   style="fill:none;stroke-width:0.5px"
		   d="M 19,12 25,6" />
		<path
		   style="fill:none;stroke-width:0.5px"
		   d="m 30,6 -6,6" />
    </symbol>
    <symbol id="pt">
	  <title>电压互感器</title>
	  <circle 
		 cx="36" cy="31" r="12"
		 style="fill:none" />    
	  <circle 
		 cx="28" cy="41" r="12"
		 style="fill:none" />    
	  <circle 
		 cx="44" cy="41" r="12"
		 style="fill:none" />    
    </symbol>
    <symbol id="pt-4">
	  <title>电压互感器-4</title>
		<circle
		   style="fill:none"
		   cx="22"
		   cy="36"
		   r="12" />
		<circle
		   style="fill:none"
		   cx="50"
		   cy="36"
		   r="12" />
		<circle
		   r="12"
		   cy="28"
		   cx="36"
		   style="fill:none" />
		<circle
		   style="fill:none"
		   cx="36"
		   cy="44"
		   r="12" />
    </symbol>
    <symbol id="fuse">
	  <title>熔断器</title>
      <rect
         style="fill:none"
         width="18"
         height="36"
         x="27"
         y="18" />
      <path
         style="fill:none"
         d="M 36,0 36,72" />
    </symbol>
    <symbol id="xlamp">
	  <title>X方向信号灯</title>
	  <circle 
		 cx="36" cy="36" r="12"/>    
      <path
         style="fill:none;"
         d="m 12,36 12,0" />
      <path
         d="m 48,36 12,0"
         style="fill:none;" />
      <path
         style="fill:none;"
         d="m 27.5,27.5 17,17" />
      <path
         d="m 44.5,27.5 -17,17"
         style="fill:none;" />
    </symbol>
    <symbol id="ylamp">
	  <title>Y方向信号灯</title>
	  <circle 
		 cx="36" cy="36" r="12"/>    
      <path
         style="fill:none;"
         d="m 36,12 0,12" />
      <path
         d="m 36,48 0,12"
         style="fill:none;" />
      <path
         style="fill:none;"
         d="m 27.5,27.5 17,17" />
      <path
         d="m 44.5,27.5 -17,17"
         style="fill:none;" />
    </symbol>
    <symbol id="lightning">
	  <title>避雷器</title>
      <rect
         style="fill:none"
         width="18"
         height="36"
         x="27"
         y="18" />
      <path
         style="fill:none"
         d="m 30,24 12,0 -6,16 z" />
      <path
         style="fill:none"
         d="M 36,0 36,24" />
      <path
         style="fill:none"
         d="m 36,54 0,18" />
    </symbol>
    <symbol id="xcapacitor">
	  <title>X方向电容器</title>
      <path
         style="fill:none"
         d="m 32,27 0,18" />
      <path
         style="fill:none"
         d="m 40,27 0,18" />
      <path
         style="fill:none"
         d="m 40,36 12,0" />
      <path
         d="m 20,36 12,0"
         style="fill:none" />
    </symbol>
    <symbol id="ycapacitor">
	  <title>Y方向电容器</title>
      <path
         style="fill:none"
         d="m 27,32 18,0" />
      <path
         style="fill:none"
         d="m 27,40 18,0" />
      <path
         style="fill:none"
         d="m 36,40 0,12" />
      <path
         d="m 36,20 0,12"
         style="fill:none" />
    </symbol>
  </defs>
    <use
       x="0"
       y="144"
       xlink:href="#reactor" />
    <use
       x="72"
       y="144"
       xlink:href="#capacitor-bank" />
    <use
       x="144"
       y="144"
       xlink:href="#pt-4" />
    <use
       x="216"
       y="144"
       xlink:href="#arc-suppression-coil" />
    <use
       x="0"
       y="0"
       xlink:href="#ct" />
    <use
       x="0"
       y="72"
       xlink:href="#fuse" />
    <use
       x="72"
       y="0"
       xlink:href="#xlamp" />
    <use
       x="72"
       y="72"
       xlink:href="#ylamp" />
    <use
       x="144"
       y="0"
       xlink:href="#xcapacitor" />
    <use
       x="144"
       y="72"
       xlink:href="#ycapacitor" />
    <use
       x="216"
       y="0"
       xlink:href="#lightning" />
    <use
       x="216"
       y="72"
       xlink:href="#zero-sequence-current" />
    <use
       x="288"
       y="0"
       xlink:href="#pt" />
	<use
		x="288"
		y="72"
		xlink:href="#trolley" />
</svg>
