<?xml version="1.0" encoding="UTF-8" standalone="no"?>
<svg xmlns:xlink="http://www.w3.org/1999/xlink" xmlns="http://www.w3.org/2000/svg" width="100%" height="100%" style="fill:#d3d3d3;stroke:#000000;stroke-width:1px" viewBox="255.26000976562 10.739990234375 174.38687133789 385.61999511719">
  <defs><symbol id="xbreaker"><title>X方向断路器</title><path style="fill:none;stroke:black" d="m 0,36 c 18,0 18,0 18,0"/><path style="fill:none;stroke:black" d="m 54,36 c 18,0 18,0 18,0"/><rect width="36" height="18" x="18" y="27" style="stroke:black"/></symbol><symbol id="ybreaker"><title>Y方向断路器</title><path style="fill:none;stroke:black" d="m 36,0 c 0,18 0,18 0,18"/><path style="fill:none;stroke:black" d="m 36,54 c 0,18 0,18 0,18"/><rect width="18" height="36" x="27" y="18" style="stroke:black"/></symbol><symbol id="ac-motor"><title>交流电动机</title><circle style="fill:none" cx="24" cy="24" r="22"/><circle r="19" cy="24" cx="24" style="fill:none"/><path style="fill:none;stroke-width:0.5" d="m 15,36 c 0,0 2,-4 5,-4 3,0 4,4 7,4 3,0 5.5,-4 5.5,-4"/><path style="fill:none;stroke-width:0.8" d="m 18,24 0,-10 6,6 6,-6 0,10"/></symbol><symbol id="Ground"><title>接地</title><path d="m 12,0 0,12" style="fill:none;stroke:black"/><path d="m 0,12 24,0" style="fill:none"/><path d="m 4,15 16,0" style="fill:none"/><path d="m 8,18 8,0" style="fill:none"/></symbol><symbol id="cable-terminal"><title>电缆终端头</title><path style="fill:none" d="m 6,8 12,0 -6,8 z"/><path style="fill:none" d="m 12,0 0,24"/></symbol><symbol id="spark-gap"><title>火花间隙</title><path d="m 9,4 3,6 3,-6 z"/><path d="m 12,14 -3,6 6,0 z"/><path d="m 12,1 0,3"/><path d="m 12,23 0,-3"/></symbol><symbol id="reactor"><title>电抗器</title><path style="fill:none" d="M 36,47.5 36,60 m 0,-48 0,24 -12.50,0 M 36,48 A 12,12 0 1 0 24,36"/></symbol><symbol id="arc-suppression-coil"><title>消弧线圈</title><rect style="fill:none" width="18" height="36" x="23" y="14"/><path style="fill:none;stroke-width:0.5px" d="m 18,46 0,-6 28,-16 0,-6"/><path style="fill:none" d="m 32,8 0,6"/><path style="fill:none" d="m 32,56 0,-6"/></symbol><symbol id="capacitor-bank"><title>电容器组</title><path style="fill:none" d="m 36,18 0,18"/><path style="fill:none" d="m 18,27 0,9 36,0 0,-9"/></symbol><symbol id="trolley"><title>手车</title><path style="fill:none;stroke:black" d="m 18,0 0,13"/><path style="fill:none;stroke:black" d="M 18,108 18,95"/><path style="fill:none" d="m 8,23 10,-5 10,5"/><path style="fill:none" d="m 8,18 10,-5 10,5"/><path style="fill:none" d="m 8,85 10,5 10,-5"/><path style="fill:none" d="m 8,90 10,5 10,-5"/></symbol><symbol id="zero-sequence-current"><title>零序电流</title><circle cx="36" cy="36" r="12" style="fill:none"/><path style="fill:none" d="m 30,16 0,40"/><path style="fill:none" d="m 36,16 0,40"/><path style="fill:none" d="m 42,16 0,40"/></symbol><symbol id="ct"><title>电流互感器</title><circle r="6" cy="9" cx="12" style="fill:none"/><path style="fill:none" d="m 12,0 0,18"/><path style="fill:none;stroke-width:0.5px" d="M 18,9 30,9"/><path style="fill:none;stroke-width:0.5px" d="M 19,12 25,6"/><path style="fill:none;stroke-width:0.5px" d="m 30,6 -6,6"/></symbol><symbol id="pt"><title>电压互感器</title><circle cx="36" cy="31" r="12" style="fill:none"/><circle cx="28" cy="41" r="12" style="fill:none"/><circle cx="44" cy="41" r="12" style="fill:none"/></symbol><symbol id="pt-4"><title>电压互感器-4</title><circle style="fill:none" cx="22" cy="36" r="12"/><circle style="fill:none" cx="50" cy="36" r="12"/><circle r="12" cy="28" cx="36" style="fill:none"/><circle style="fill:none" cx="36" cy="44" r="12"/></symbol><symbol id="fuse"><title>熔断器</title><rect style="fill:none" width="18" height="36" x="27" y="18"/><path style="fill:none" d="M 36,0 36,72"/></symbol><symbol id="xlamp"><title>X方向信号灯</title><circle cx="36" cy="36" r="12" style="stroke:black"/><path style="fill:none;stroke:black" d="m 12,36 12,0"/><path d="m 48,36 12,0" style="fill:none;stroke:black"/><path style="fill:none;stroke:black" d="m 27.5,27.5 17,17"/><path d="m 44.5,27.5 -17,17" style="fill:none;stroke:black"/></symbol><symbol id="ylamp"><title>Y方向信号灯</title><circle cx="36" cy="36" r="12" style="stroke:black"/><path style="fill:none;stroke:black" d="m 36,12 0,12"/><path d="m 36,48 0,12" style="fill:none;stroke:black"/><path style="fill:none;stroke:black" d="m 27.5,27.5 17,17"/><path d="m 44.5,27.5 -17,17" style="fill:none;stroke:black"/></symbol><symbol id="lightning"><title>避雷器</title><rect style="fill:none" width="18" height="36" x="27" y="18"/><path style="fill:none" d="m 30,24 12,0 -6,16 z"/><path style="fill:none" d="M 36,0 36,24"/><path style="fill:none" d="m 36,54 0,18"/></symbol><symbol id="xcapacitor"><title>X方向电容器</title><path style="fill:none" d="m 32,27 0,18"/><path style="fill:none" d="m 40,27 0,18"/><path style="fill:none" d="m 40,36 12,0"/><path d="m 20,36 12,0" style="fill:none"/></symbol><symbol id="ycapacitor"><title>Y方向电容器</title><path style="fill:none" d="m 27,32 18,0"/><path style="fill:none" d="m 27,40 18,0"/><path style="fill:none" d="m 36,40 0,12"/><path d="m 36,20 0,12" style="fill:none"/></symbol><symbol id="y-contactor-off"><title>Y方向接触器分</title><path style="fill:none" d="m 36,0 0,32 c 0,0 8,-2 8,-5 0,-3 -8,-4 -8,-4"/><path style="fill:none" d="M 36,72 36,48 56,27"/></symbol><symbol id="y-contactor-on"><title>Y方向接触器合</title><path style="fill:none" d="m 36,0 0,32 c 0,0 8,-2 8,-5 0,-3 -8,-4 -8,-4"/><path style="fill:none" d="M 36,72 36,48 44,27"/></symbol><symbol id="y-disconnector-off"><title>Y方向隔离刀闸分</title><path style="fill:none;stroke:black" d="m 36,0 0,24"/><path style="fill:none" d="M 36,72 36,48 52,24"/><path style="fill:none" d="m 28,24 16,0"/></symbol><symbol id="y-disconnector-on"><title>Y方向隔离刀闸合</title><path style="fill:none;stroke-linecap:round;stroke:black" d="m 36,0 0,24"/><path style="fill:none;stroke-linecap:round" d="m 28,24 16,0"/><path style="fill:none;stroke-linecap:round" d="M 36,72 36,48 44,24"/></symbol><symbol id="x-disconnector-on"><title>X方向隔离刀闸合</title><path style="fill:none;stroke-linecap:round;stroke:black" d="m 0,36 24,0"/><path style="fill:none;stroke-linecap:round" d="M 72,36 48,36 24,28"/><path style="fill:none;stroke-linecap:round" d="M 24,44 24,28"/></symbol><symbol id="x-disconnector-off"><title>X方向隔离刀闸分</title><path style="fill:none;stroke:black" d="m 0,36 24,0"/><path style="fill:none" d="M 72,36 48,36 24,20"/><path style="fill:none" d="M 24,44 24,28"/></symbol><symbol id="xswitch-off"><title>X方向开关分</title><path style="fill:none;stroke:black" d="m 0,36 24,0"/><path style="fill:none" d="M 16.243239,43.808613 31.99127,28.060582 m -15.748031,3e-6 15.748031,15.748028"/><path style="fill:none" d="m 24,16 24,20 24,0"/></symbol><symbol id="xswitch-on"><title>X方向开关合</title><path style="fill:none;stroke:black" d="m 0,36 24,0"/><path style="fill:none" d="M 16.243239,43.808567 31.99127,28.060536 m -15.748031,3e-6 15.748031,15.748028"/><path style="fill:none" d="m 24,36 48,0"/></symbol><symbol id="yswitch-on"><title>Y方向开关合</title><path style="fill:none" d="m 36.027422,21.661853 c -0.02435,16.7779 -0.04414,33.55581 -0.03583,50.33373"/><path style="fill:none" d="m 35.991591,-0.00441843 0,21.60000143 m -7.200001,7.2 14.400002,-14.4 m -14.400002,0 14.400002,14.4"/></symbol><symbol id="yswitch-off"><title>Y方向开关分</title><path style="fill:none" d="m 57.357469,21.662208 -21.33449,28.259314 0,22.074413"/><path style="fill:none" d="m 36.022979,-0.00406261 0,21.59999961 m -7.2,7.2 14.4,-14.4 m -14.4,0 14.4,14.4"/></symbol><symbol id="transformer2"><title>二绕组变压器</title><g><circle r="12" cy="27" cx="36" style="fill:none"/><g><path style="stroke-width:0.5" d="m 32,30.3 4,-3 0,-4"/><path style="stroke-width:0.5" d="m 40,30.3 -4,-3"/></g></g><g><circle r="12" cy="45" cx="36" style="fill:none"/><path d="m 32,42 8,0 -4,5 z" style="stroke-width:0.5"/></g></symbol><symbol id="onloadtransformer2"><title>二绕组有载调压变压器</title><g><circle r="12" cy="27" cx="36" style="fill:none"/><g><path style="stroke-width:0.5" d="m 33,31 3,-4 0,-4"/><path style="stroke-width:0.5" d="M 40,31 36,27"/></g></g><g id="g50452"><circle r="12" cy="45" cx="36" style="fill:none" id="circle50454"/><path d="m 32,47 8,0 -4,-5 z" style="stroke-width:0.5" id="path50456"/></g><path style="stroke-width:0.5" d="M 20,34 52,20" id="path50458"/><path style="stroke-width:0.5" d="m 49,20 1,2 2,-2 z" id="path50460"/></symbol><symbol id="transformer3"><title>三绕组变压器</title><g><circle r="12" cy="27.5" cx="36" style="fill:none"/><g><path style="stroke-width:0.5" d="m 32,30.8 4,-3 0,-4"/><path style="stroke-width:0.5" d="m 40,30.8 -4,-3"/></g></g><g><circle r="12" cy="44.5" cx="26" style="fill:none"/><g><path d="m 30,40.8 -4,3 0,4" style="stroke-width:0.5"/><path d="m 22,40.8 4,3" style="stroke-width:0.5"/></g></g><g><circle r="12" cy="44.5" cx="46" style="fill:none"/><path d="m 43,40.5 0,8 5,-4 z" style="stroke-width:0.5"/></g></symbol><symbol id="onloadtransformer3"><title>三绕组有载调压变压器</title><g><circle r="12" cy="27.5" cx="36" style="fill:none"/><g><path style="stroke-width:0.5" d="m 32,30.8 4,-3 0,-4"/><path style="stroke-width:0.5" d="m 40,30.8 -4,-3"/></g></g><g><circle r="12" cy="44.5" cx="26" style="fill:none"/><g><path d="m 22,47.8 4,-3 0,-4" style="stroke-width:0.5"/><path d="m 30,47.8 -4,-3" style="stroke-width:0.5"/></g></g><g><circle r="12" cy="44.5" cx="46" style="fill:none"/><path d="m 43,40.5 0,8 5,-4 z" style="stroke-width:0.5"/></g><g><path d="M 13,34 54,21" style="stroke-width:0.5"/><path d="M 49,20 50.542708,24.395821 54,21 Z" style="stroke-width:0.5"/></g></symbol><symbol id="transformer2-1"><title>二绕组有载调压变压器</title><g><circle r="12" cy="27" cx="36" style="fill:none"/><g><path style="stroke-width:0.5" d="m 33,31 3,-4 0,-4"/><path style="stroke-width:0.5" d="M 40,31 36,27"/></g></g><g><circle r="12" cy="45" cx="36" style="fill:none"/><path d="m 32,47 8,0 -4,-5 z" style="stroke-width:0.5"/></g><path style="stroke-width:0.5" d="M 20,34 52,20"/><path style="stroke-width:0.5" d="m 49,20 1,2 2,-2 z"/></symbol><symbol id="transformer3-1"><title>三绕组有载调压变压器</title><g><circle r="12" cy="27.5" cx="36" style="fill:none"/><g><path style="stroke-width:0.5" d="m 32,30.8 4,-3 0,-4"/><path style="stroke-width:0.5" d="m 40,30.8 -4,-3"/></g></g><g><circle r="12" cy="44.5" cx="26" style="fill:none"/><g><path d="m 22,47.8 4,-3 0,-4" style="stroke-width:0.5"/><path d="m 30,47.8 -4,-3" style="stroke-width:0.5"/></g></g><g><circle r="12" cy="44.5" cx="46" style="fill:none"/><path d="m 43,40.5 0,8 5,-4 z" style="stroke-width:0.5"/></g><g><path d="M 13,34 54,21" style="stroke-width:0.5"/><path d="M 49,20 50.542708,24.395821 54,21 Z" style="stroke-width:0.5"/></g></symbol></defs>
<g class="cabinet" pointmap="yx:station:1,no:259,channel:1,rtu:4,address:1" title="1#电容器开关柜"><title>1#电容器开关柜</title><use transform="matrix(-1 0 0 -1 319.14 116.75)" height="100%" width="100%" y="0" x="0" stroke-width="1.5" xlink:href="#cable-terminal"/><g stroke-width="1.5" transform="matrix(-1 0 0 -1 902.64 466.36)"><use flash="false" title="RTU004_YX00263(1#电容器保护_接地刀位置遥信)" class="switch" pointmap="yx:station:1,no:263,channel:1,rtu:4,address:5" transform="translate(595.38,296)" value="0" iv="1" width="100%" y="0" x="0" height="100%" xlink:href="#y-disconnector-off"><title>RTU004_YX00263(1#电容器保护_接地刀位置遥信)</title></use><use transform="translate(619.39,366.25)" height="100%" width="100%" y="0" x="0" xlink:href="#Ground"/></g><path d="m345.63 169.88h-75" stroke-width="1px" fill="none"/><g><g stroke-width="1.5" transform="matrix(-1 0 0 -1 874.3 556.36)"><use transform="matrix(1,0,0,-1,555.17,481.62)" height="100%" width="100%" y="0" x="0" xlink:href="#cable-terminal"/><use transform="translate(531.19,469.62)" height="100%" width="100%" y="0" x="0" xlink:href="#reactor"/><use transform="translate(531.17,509.62)" height="100%" width="100%" y="0" x="0" xlink:href="#capacitor-bank"/></g><use flash="false" title="RTU004_YX00261(1#电容器保护_小车工作位置遥信)" class="trolley" pointmap="yx:station:1,no:261,channel:1,rtu:4,address:3" transform="matrix(-1 0 0 -1 325.14 396.36)" height="100%" width="100%" y="0" x="0" stroke-width="1" xlink:href="#trolley"><title>RTU004_YX00261(1#电容器保护_小车工作位置遥信)</title></use><use height="100%" flash="true" title="RTU004_YX00259(1#电容器保护_断路器合闸位置遥信)" class="breaker" pointmap="yx:station:1,no:259,channel:1,rtu:4,address:1" transform="matrix(-1 0 0 -1 343.14 378.36)" click="func-yktoolbar" eventpoint="yk:station:1,no:107,channel:1,rtu:4,address:3073" width="100%" y="0" x="0" stroke-width="1" xlink:href="#ybreaker"><title>RTU004_YX00259(1#电容器保护_断路器合闸位置遥信)</title></use></g><g stroke-width="1.5" transform="matrix(-1 0 0 -1 778.24 385.08)"><g transform="translate(-1.2296,12)"><use transform="translate(435.06,84.724)" height="100%" width="100%" y="0" x="0" xlink:href="#ct"/><use transform="translate(485.61,84.724)" height="100%" width="100%" y="0" x="0" xlink:href="#ct"/><use transform="translate(460.33,84.724)" height="100%" width="100%" y="0" x="0" xlink:href="#ct"/></g><g transform="translate(-1.2296,28.501)"><use transform="translate(435.06,84.724)" height="100%" width="100%" y="0" x="0" xlink:href="#ct"/><use transform="translate(485.61,84.724)" height="100%" width="100%" y="0" x="0" xlink:href="#ct"/><use transform="translate(460.33,84.724)" height="100%" width="100%" y="0" x="0" xlink:href="#ct"/></g><g transform="translate(-1.2296,45.002)"><use transform="translate(435.06,84.724)" height="100%" width="100%" y="0" x="0" xlink:href="#ct"/><use transform="translate(485.61,84.724)" height="100%" width="100%" y="0" x="0" xlink:href="#ct"/><use transform="translate(460.33,84.724)" height="100%" width="100%" y="0" x="0" xlink:href="#ct"/></g></g><use transform="matrix(-1 0 0 -1 381.64 169.83)" height="100%" width="100%" y="0" x="0" stroke-width="2" xlink:href="#lightning"/><use transform="matrix(-1 0 0 -1 357.64 98.503)" height="100%" width="100%" y="0" x="0" stroke-width="2.2" xlink:href="#Ground"/><path d="m307.13 116.75v124.14h0.29658" stroke-width="1px" fill="none"/><g font-size="12.5px" transform="translate(-164.4 75.564)" stroke-width="1"><text style="word-spacing:0px;letter-spacing:0px" y="114.17106" x="479.99118" font-family="Sans" line-height="125%"><tspan y="114.17106" x="479.99118" stroke-width="1">Ia:</tspan></text><text style="word-spacing:0px;letter-spacing:0px" line-height="125%" title="RTU004_YC00052(1#电容器保护_IA)" class="analogtext" limitstatus="0" value="0" iv="1" y="114.25346" pointmap="yc:station:1,no:52,channel:1,rtu:4,address:2049" x="502.78137" stroke-width="1">0.0<title>RTU004_YC00052(1#电容器保护_IA)</title></text><g transform="translate(0 -2.0183)"><text style="word-spacing:0px;letter-spacing:0px" y="134.17108" x="479.99118" font-family="Sans" line-height="125%"><tspan stroke-width="1">Ib:</tspan></text><text style="word-spacing:0px;letter-spacing:0px" line-height="125%" title="RTU004_YC00053(1#电容器保护_IB)" class="analogtext" flash="false" limitstatus="0" value="0" iv="1" y="134.25348" pointmap="yc:station:1,no:53,channel:1,rtu:4,address:2050" x="502.78137" stroke-width="1">0.0<title>RTU004_YC00053(1#电容器保护_IB)</title></text></g><text style="word-spacing:0px;letter-spacing:0px" y="150.17108" x="479.99118" font-family="Sans" line-height="125%"><tspan stroke-width="1">Ic:</tspan></text><text style="word-spacing:0px;letter-spacing:0px" line-height="125%" title="RTU004_YC00054(1#电容器保护_IC)" class="analogtext" limitstatus="0" value="0" iv="1" y="150.25348" pointmap="yc:station:1,no:54,channel:1,rtu:4,address:2051" x="502.78137" stroke-width="1">0.0<title>RTU004_YC00054(1#电容器保护_IC)</title></text></g></g></svg>
