<?xml version="1.0" encoding="UTF-8" standalone="no"?>
<svg xmlns:xlink="http://www.w3.org/1999/xlink" xmlns="http://www.w3.org/2000/svg" width="100%" height="100%" style="fill:#d3d3d3;stroke:#000000;stroke-width:1px" viewBox="409.82440185547 89.339996337891 116.0625 292.7200012207">
  <defs><symbol id="xbreaker"><title>X方向断路器</title><path style="fill:none;stroke:black" d="m 0,36 c 18,0 18,0 18,0"/><path style="fill:none;stroke:black" d="m 54,36 c 18,0 18,0 18,0"/><rect width="36" height="18" x="18" y="27" style="stroke:black"/></symbol><symbol id="ybreaker"><title>Y方向断路器</title><path style="fill:none;stroke:black" d="m 36,0 c 0,18 0,18 0,18"/><path style="fill:none;stroke:black" d="m 36,54 c 0,18 0,18 0,18"/><rect width="18" height="36" x="27" y="18" style="stroke:black"/></symbol><symbol id="ac-motor"><title>交流电动机</title><circle style="fill:none" cx="24" cy="24" r="22"/><circle r="19" cy="24" cx="24" style="fill:none"/><path style="fill:none;stroke-width:0.5" d="m 15,36 c 0,0 2,-4 5,-4 3,0 4,4 7,4 3,0 5.5,-4 5.5,-4"/><path style="fill:none;stroke-width:0.8" d="m 18,24 0,-10 6,6 6,-6 0,10"/></symbol><symbol id="Ground"><title>接地</title><path d="m 12,0 0,12" style="fill:none;stroke:black"/><path d="m 0,12 24,0" style="fill:none"/><path d="m 4,15 16,0" style="fill:none"/><path d="m 8,18 8,0" style="fill:none"/></symbol><symbol id="cable-terminal"><title>电缆终端头</title><path style="fill:none" d="m 6,8 12,0 -6,8 z"/><path style="fill:none" d="m 12,0 0,24"/></symbol><symbol id="spark-gap"><title>火花间隙</title><path d="m 9,4 3,6 3,-6 z"/><path d="m 12,14 -3,6 6,0 z"/><path d="m 12,1 0,3"/><path d="m 12,23 0,-3"/></symbol><symbol id="reactor"><title>电抗器</title><path style="fill:none" d="M 36,47.5 36,60 m 0,-48 0,24 -12.50,0 M 36,48 A 12,12 0 1 0 24,36"/></symbol><symbol id="arc-suppression-coil"><title>消弧线圈</title><rect style="fill:none" width="18" height="36" x="23" y="14"/><path style="fill:none;stroke-width:0.5px" d="m 18,46 0,-6 28,-16 0,-6"/><path style="fill:none" d="m 32,8 0,6"/><path style="fill:none" d="m 32,56 0,-6"/></symbol><symbol id="capacitor-bank"><title>电容器组</title><path style="fill:none" d="m 36,18 0,18"/><path style="fill:none" d="m 18,27 0,9 36,0 0,-9"/></symbol><symbol id="trolley"><title>手车</title><path style="fill:none;stroke:black" d="m 18,0 0,13"/><path style="fill:none;stroke:black" d="M 18,108 18,95"/><path style="fill:none" d="m 8,23 10,-5 10,5"/><path style="fill:none" d="m 8,18 10,-5 10,5"/><path style="fill:none" d="m 8,85 10,5 10,-5"/><path style="fill:none" d="m 8,90 10,5 10,-5"/></symbol><symbol id="zero-sequence-current"><title>零序电流</title><circle cx="36" cy="36" r="12" style="fill:none"/><path style="fill:none" d="m 30,16 0,40"/><path style="fill:none" d="m 36,16 0,40"/><path style="fill:none" d="m 42,16 0,40"/></symbol><symbol id="ct"><title>电流互感器</title><circle r="6" cy="9" cx="12" style="fill:none"/><path style="fill:none" d="m 12,0 0,18"/><path style="fill:none;stroke-width:0.5px" d="M 18,9 30,9"/><path style="fill:none;stroke-width:0.5px" d="M 19,12 25,6"/><path style="fill:none;stroke-width:0.5px" d="m 30,6 -6,6"/></symbol><symbol id="pt"><title>电压互感器</title><circle cx="36" cy="31" r="12" style="fill:none"/><circle cx="28" cy="41" r="12" style="fill:none"/><circle cx="44" cy="41" r="12" style="fill:none"/></symbol><symbol id="pt-4"><title>电压互感器-4</title><circle style="fill:none" cx="22" cy="36" r="12"/><circle style="fill:none" cx="50" cy="36" r="12"/><circle r="12" cy="28" cx="36" style="fill:none"/><circle style="fill:none" cx="36" cy="44" r="12"/></symbol><symbol id="fuse"><title>熔断器</title><rect style="fill:none" width="18" height="36" x="27" y="18"/><path style="fill:none" d="M 36,0 36,72"/></symbol><symbol id="xlamp"><title>X方向信号灯</title><circle cx="36" cy="36" r="12" style="stroke:black"/><path style="fill:none;stroke:black" d="m 12,36 12,0"/><path d="m 48,36 12,0" style="fill:none;stroke:black"/><path style="fill:none;stroke:black" d="m 27.5,27.5 17,17"/><path d="m 44.5,27.5 -17,17" style="fill:none;stroke:black"/></symbol><symbol id="ylamp"><title>Y方向信号灯</title><circle cx="36" cy="36" r="12" style="stroke:black"/><path style="fill:none;stroke:black" d="m 36,12 0,12"/><path d="m 36,48 0,12" style="fill:none;stroke:black"/><path style="fill:none;stroke:black" d="m 27.5,27.5 17,17"/><path d="m 44.5,27.5 -17,17" style="fill:none;stroke:black"/></symbol><symbol id="lightning"><title>避雷器</title><rect style="fill:none" width="18" height="36" x="27" y="18"/><path style="fill:none" d="m 30,24 12,0 -6,16 z"/><path style="fill:none" d="M 36,0 36,24"/><path style="fill:none" d="m 36,54 0,18"/></symbol><symbol id="xcapacitor"><title>X方向电容器</title><path style="fill:none" d="m 32,27 0,18"/><path style="fill:none" d="m 40,27 0,18"/><path style="fill:none" d="m 40,36 12,0"/><path d="m 20,36 12,0" style="fill:none"/></symbol><symbol id="ycapacitor"><title>Y方向电容器</title><path style="fill:none" d="m 27,32 18,0"/><path style="fill:none" d="m 27,40 18,0"/><path style="fill:none" d="m 36,40 0,12"/><path d="m 36,20 0,12" style="fill:none"/></symbol><symbol id="y-contactor-off"><title>Y方向接触器分</title><path style="fill:none" d="m 36,0 0,32 c 0,0 8,-2 8,-5 0,-3 -8,-4 -8,-4"/><path style="fill:none" d="M 36,72 36,48 56,27"/></symbol><symbol id="y-contactor-on"><title>Y方向接触器合</title><path style="fill:none" d="m 36,0 0,32 c 0,0 8,-2 8,-5 0,-3 -8,-4 -8,-4"/><path style="fill:none" d="M 36,72 36,48 44,27"/></symbol><symbol id="y-disconnector-off"><title>Y方向隔离刀闸分</title><path style="fill:none;stroke:black" d="m 36,0 0,24"/><path style="fill:none" d="M 36,72 36,48 52,24"/><path style="fill:none" d="m 28,24 16,0"/></symbol><symbol id="y-disconnector-on"><title>Y方向隔离刀闸合</title><path style="fill:none;stroke-linecap:round;stroke:black" d="m 36,0 0,24"/><path style="fill:none;stroke-linecap:round" d="m 28,24 16,0"/><path style="fill:none;stroke-linecap:round" d="M 36,72 36,48 44,24"/></symbol><symbol id="x-disconnector-on"><title>X方向隔离刀闸合</title><path style="fill:none;stroke-linecap:round;stroke:black" d="m 0,36 24,0"/><path style="fill:none;stroke-linecap:round" d="M 72,36 48,36 24,28"/><path style="fill:none;stroke-linecap:round" d="M 24,44 24,28"/></symbol><symbol id="x-disconnector-off"><title>X方向隔离刀闸分</title><path style="fill:none;stroke:black" d="m 0,36 24,0"/><path style="fill:none" d="M 72,36 48,36 24,20"/><path style="fill:none" d="M 24,44 24,28"/></symbol><symbol id="xswitch-off"><title>X方向开关分</title><path style="fill:none;stroke:black" d="m 0,36 24,0"/><path style="fill:none" d="M 16.243239,43.808613 31.99127,28.060582 m -15.748031,3e-6 15.748031,15.748028"/><path style="fill:none" d="m 24,16 24,20 24,0"/></symbol><symbol id="xswitch-on"><title>X方向开关合</title><path style="fill:none;stroke:black" d="m 0,36 24,0"/><path style="fill:none" d="M 16.243239,43.808567 31.99127,28.060536 m -15.748031,3e-6 15.748031,15.748028"/><path style="fill:none" d="m 24,36 48,0"/></symbol><symbol id="yswitch-on"><title>Y方向开关合</title><path style="fill:none" d="m 36.027422,21.661853 c -0.02435,16.7779 -0.04414,33.55581 -0.03583,50.33373"/><path style="fill:none" d="m 35.991591,-0.00441843 0,21.60000143 m -7.200001,7.2 14.400002,-14.4 m -14.400002,0 14.400002,14.4"/></symbol><symbol id="yswitch-off"><title>Y方向开关分</title><path style="fill:none" d="m 57.357469,21.662208 -21.33449,28.259314 0,22.074413"/><path style="fill:none" d="m 36.022979,-0.00406261 0,21.59999961 m -7.2,7.2 14.4,-14.4 m -14.4,0 14.4,14.4"/></symbol><symbol id="transformer2"><title>二绕组变压器</title><g><circle r="12" cy="27" cx="36" style="fill:none"/><g><path style="stroke-width:0.5" d="m 32,30.3 4,-3 0,-4"/><path style="stroke-width:0.5" d="m 40,30.3 -4,-3"/></g></g><g><circle r="12" cy="45" cx="36" style="fill:none"/><path d="m 32,42 8,0 -4,5 z" style="stroke-width:0.5"/></g></symbol><symbol id="onloadtransformer2"><title>二绕组有载调压变压器</title><g><circle r="12" cy="27" cx="36" style="fill:none"/><g><path style="stroke-width:0.5" d="m 33,31 3,-4 0,-4"/><path style="stroke-width:0.5" d="M 40,31 36,27"/></g></g><g id="g50452"><circle r="12" cy="45" cx="36" style="fill:none" id="circle50454"/><path d="m 32,47 8,0 -4,-5 z" style="stroke-width:0.5" id="path50456"/></g><path style="stroke-width:0.5" d="M 20,34 52,20" id="path50458"/><path style="stroke-width:0.5" d="m 49,20 1,2 2,-2 z" id="path50460"/></symbol><symbol id="transformer3"><title>三绕组变压器</title><g><circle r="12" cy="27.5" cx="36" style="fill:none"/><g><path style="stroke-width:0.5" d="m 32,30.8 4,-3 0,-4"/><path style="stroke-width:0.5" d="m 40,30.8 -4,-3"/></g></g><g><circle r="12" cy="44.5" cx="26" style="fill:none"/><g><path d="m 30,40.8 -4,3 0,4" style="stroke-width:0.5"/><path d="m 22,40.8 4,3" style="stroke-width:0.5"/></g></g><g><circle r="12" cy="44.5" cx="46" style="fill:none"/><path d="m 43,40.5 0,8 5,-4 z" style="stroke-width:0.5"/></g></symbol><symbol id="onloadtransformer3"><title>三绕组有载调压变压器</title><g><circle r="12" cy="27.5" cx="36" style="fill:none"/><g><path style="stroke-width:0.5" d="m 32,30.8 4,-3 0,-4"/><path style="stroke-width:0.5" d="m 40,30.8 -4,-3"/></g></g><g><circle r="12" cy="44.5" cx="26" style="fill:none"/><g><path d="m 22,47.8 4,-3 0,-4" style="stroke-width:0.5"/><path d="m 30,47.8 -4,-3" style="stroke-width:0.5"/></g></g><g><circle r="12" cy="44.5" cx="46" style="fill:none"/><path d="m 43,40.5 0,8 5,-4 z" style="stroke-width:0.5"/></g><g><path d="M 13,34 54,21" style="stroke-width:0.5"/><path d="M 49,20 50.542708,24.395821 54,21 Z" style="stroke-width:0.5"/></g></symbol><symbol id="transformer2-1"><title>二绕组有载调压变压器</title><g><circle r="12" cy="27" cx="36" style="fill:none"/><g><path style="stroke-width:0.5" d="m 33,31 3,-4 0,-4"/><path style="stroke-width:0.5" d="M 40,31 36,27"/></g></g><g><circle r="12" cy="45" cx="36" style="fill:none"/><path d="m 32,47 8,0 -4,-5 z" style="stroke-width:0.5"/></g><path style="stroke-width:0.5" d="M 20,34 52,20"/><path style="stroke-width:0.5" d="m 49,20 1,2 2,-2 z"/></symbol><symbol id="transformer3-1"><title>三绕组有载调压变压器</title><g><circle r="12" cy="27.5" cx="36" style="fill:none"/><g><path style="stroke-width:0.5" d="m 32,30.8 4,-3 0,-4"/><path style="stroke-width:0.5" d="m 40,30.8 -4,-3"/></g></g><g><circle r="12" cy="44.5" cx="26" style="fill:none"/><g><path d="m 22,47.8 4,-3 0,-4" style="stroke-width:0.5"/><path d="m 30,47.8 -4,-3" style="stroke-width:0.5"/></g></g><g><circle r="12" cy="44.5" cx="46" style="fill:none"/><path d="m 43,40.5 0,8 5,-4 z" style="stroke-width:0.5"/></g><g><path d="M 13,34 54,21" style="stroke-width:0.5"/><path d="M 49,20 50.542708,24.395821 54,21 Z" style="stroke-width:0.5"/></g></symbol></defs>
<g class="cabinet" title="1#PT柜"><title>1#PT柜</title><g font-size="12.5px" stroke-width="1px" transform="translate(655.09 -395.16)"><text style="word-spacing:0px;letter-spacing:0px" y="535.2074" x="-245.25473" font-family="Sans" line-height="125%"><tspan>Ua:</tspan></text><text style="word-spacing:0px;letter-spacing:0px" y="535.28979" title="RTU005_YC00071(1#PT柜保护_Uab1)" limitstatus="0" value="0" line-height="125%" pointmap="yc:station:1,no:71,channel:1,rtu:5,address:2052" iv="1" x="-220.46454" stroke-width="1px" class="analogtext">0.0<title>RTU005_YC00071(1#PT柜保护_Uab1)</title></text><text style="word-spacing:0px;letter-spacing:0px" y="551.2074" x="-245.25473" font-family="Sans" line-height="125%"><tspan y="551.2074" x="-245.25473">Ub:</tspan></text><text style="word-spacing:0px;letter-spacing:0px" line-height="125%" title="RTU005_YC00072(1#PT柜保护_Ubc1)" class="analogtext" limitstatus="0" value="0" iv="1" y="551.28979" pointmap="yc:station:1,no:72,channel:1,rtu:5,address:2053" x="-220.46454" stroke-width="1px">0.0<title>RTU005_YC00072(1#PT柜保护_Ubc1)</title></text><text style="word-spacing:0px;letter-spacing:0px" y="567.2074" x="-245.25473" font-family="Sans" line-height="125%"><tspan>Uc:</tspan></text><text style="word-spacing:0px;letter-spacing:0px" y="567.28979" title="RTU005_YC00073(1#PT柜保护_Uca1)" limitstatus="0" value="0" line-height="125%" pointmap="yc:station:1,no:73,channel:1,rtu:5,address:2054" iv="1" x="-220.46454" stroke-width="1px" class="analogtext">0.0<title>RTU005_YC00073(1#PT柜保护_Uca1)</title></text></g><g stroke-width="1" transform="matrix(-1 0 0 -1 1065.8 506.16)"><use transform="translate(559.97,226.85)" height="100%" width="100%" y="0" x="0" xlink:href="#Ground"/><use transform="translate(535.97,154.85)" height="100%" width="100%" y="0" x="0" xlink:href="#lightning"/></g><use transform="matrix(-1 0 0 -1 474.04 363.66)" height="100%" width="100%" y="0" x="0" stroke-width="1.5" xlink:href="#fuse"/><use class="trolley" transform="matrix(-1 0 0 -1 456.04 382.06)" height="100%" width="100%" y="0" x="0" stroke-width="1" xlink:href="#trolley"/><g transform="translate(-37.357,1.8032)"><use transform="matrix(-1 0 0 -1 543.16 194.63)" height="100%" width="100%" y="0" x="0" stroke-width="1" xlink:href="#Ground"/><path d="m531.16 349.51h-54.852" stroke-width="1px" fill="none"/><path d="m475.39 272.26v-36.761" stroke-width="1px" fill="none"/></g><use transform="matrix(-1 0 0 -1 473.9 254.22)" height="100%" width="100%" y="0" x="0" xlink:href="#pt-4"/><path d="m493.8 190.43v28.999h-28.596" stroke-width="1px" fill="none"/></g></svg>
