<!--?xml version="1.0" encoding="UTF-8" standalone="no"?-->
<svg xmlns:xlink="http://www.w3.org/1999/xlink" xmlns="http://www.w3.org/2000/svg" width="100%" height="100%" viewBox="0 0 984.65417 472.05581" id="ext-gen2112" style="fill:#d3d3d3;stroke:#000000;stroke-width:1px">
  <defs><symbol id="xbreaker"><title>X方向断路器</title><path style="fill:none;" d="m 0,36 c 18,0 18,0 18,0"></path><path style="fill:none;" d="m 54,36 c 18,0 18,0 18,0"></path><rect width="36" height="18" x="18" y="27"></rect></symbol><symbol id="ybreaker"><title>Y方向断路器</title><path style="fill:none;" d="m 36,0 c 0,18 0,18 0,18"></path><path style="fill:none;" d="m 36,54 c 0,18 0,18 0,18"></path><rect width="18" height="36" x="27" y="18"></rect></symbol><symbol id="ac-motor"><title>交流电动机</title><circle style="fill:none" cx="24" cy="24" r="22"></circle><circle r="19" cy="24" cx="24" style="fill:none"></circle><path style="fill:none;stroke-width:0.5" d="m 15,36 c 0,0 2,-4 5,-4 3,0 4,4 7,4 3,0 5.5,-4 5.5,-4"></path><path style="fill:none;stroke-width:0.8" d="m 18,24 0,-10 6,6 6,-6 0,10"></path></symbol><symbol id="Ground"><title>接地</title><path d="m 12,0 0,12" style="fill:none;"></path><path d="m 0,12 24,0" style="fill:none"></path><path d="m 4,15 16,0" style="fill:none"></path><path d="m 8,18 8,0" style="fill:none"></path></symbol><symbol id="cable-terminal"><title>电缆终端头</title><path style="fill:none" d="m 6,8 12,0 -6,8 z"></path><path style="fill:none" d="m 12,0 0,24"></path></symbol><symbol id="spark-gap"><title>火花间隙</title><path d="m 9,4 3,6 3,-6 z"></path><path d="m 12,14 -3,6 6,0 z"></path><path d="m 12,1 0,3"></path><path d="m 12,23 0,-3"></path></symbol><symbol id="reactor"><title>电抗器</title><path style="fill:none" d="M 36,47.5 36,60 m 0,-48 0,24 -12.50,0 M 36,48 A 12,12 0 1 0 24,36"></path></symbol><symbol id="arc-suppression-coil"><title>消弧线圈</title><rect style="fill:none" width="18" height="36" x="23" y="14"></rect><path style="fill:none;stroke-width:0.5px" d="m 18,46 0,-6 28,-16 0,-6"></path><path style="fill:none" d="m 32,8 0,6"></path><path style="fill:none" d="m 32,56 0,-6"></path></symbol><symbol id="capacitor-bank"><title>电容器组</title><path style="fill:none" d="m 36,18 0,18"></path><path style="fill:none" d="m 18,27 0,9 36,0 0,-9"></path></symbol><symbol id="trolley"><title>手车</title><path style="fill:none;" d="m 18,0 0,13"></path><path style="fill:none;" d="M 18,108 18,95"></path><path style="fill:none" d="m 8,23 10,-5 10,5"></path><path style="fill:none" d="m 8,18 10,-5 10,5"></path><path style="fill:none" d="m 8,85 10,5 10,-5"></path><path style="fill:none" d="m 8,90 10,5 10,-5"></path></symbol><symbol id="zero-sequence-current"><title>零序电流</title><circle cx="36" cy="36" r="12" style="fill:none"></circle><path style="fill:none" d="m 30,16 0,40"></path><path style="fill:none" d="m 36,16 0,40"></path><path style="fill:none" d="m 42,16 0,40"></path></symbol><symbol id="ct"><title>电流互感器</title><circle r="6" cy="9" cx="12" style="fill:none"></circle><path style="fill:none" d="m 12,0 0,18"></path><path style="fill:none;stroke-width:0.5px" d="M 18,9 30,9"></path><path style="fill:none;stroke-width:0.5px" d="M 19,12 25,6"></path><path style="fill:none;stroke-width:0.5px" d="m 30,6 -6,6"></path></symbol><symbol id="pt"><title>电压互感器</title><circle cx="36" cy="31" r="12" style="fill:none"></circle><circle cx="28" cy="41" r="12" style="fill:none"></circle><circle cx="44" cy="41" r="12" style="fill:none"></circle></symbol><symbol id="pt-4"><title>电压互感器-4</title><circle style="fill:none" cx="22" cy="36" r="12"></circle><circle style="fill:none" cx="50" cy="36" r="12"></circle><circle r="12" cy="28" cx="36" style="fill:none"></circle><circle style="fill:none" cx="36" cy="44" r="12"></circle></symbol><symbol id="fuse"><title>熔断器</title><rect style="fill:none" width="18" height="36" x="27" y="18"></rect><path style="fill:none" d="M 36,0 36,72"></path></symbol><symbol id="xlamp"><title>X方向信号灯</title><circle cx="36" cy="36" r="12"></circle><path style="fill:none;" d="m 12,36 12,0"></path><path d="m 48,36 12,0" style="fill:none;"></path><path style="fill:none;" d="m 27.5,27.5 17,17"></path><path d="m 44.5,27.5 -17,17" style="fill:none;"></path></symbol><symbol id="ylamp"><title>Y方向信号灯</title><circle cx="36" cy="36" r="12"></circle><path style="fill:none;" d="m 36,12 0,12"></path><path d="m 36,48 0,12" style="fill:none;"></path><path style="fill:none;" d="m 27.5,27.5 17,17"></path><path d="m 44.5,27.5 -17,17" style="fill:none;"></path></symbol><symbol id="lightning"><title>避雷器</title><rect style="fill:none" width="18" height="36" x="27" y="18"></rect><path style="fill:none" d="m 30,24 12,0 -6,16 z"></path><path style="fill:none" d="M 36,0 36,24"></path><path style="fill:none" d="m 36,54 0,18"></path></symbol><symbol id="xcapacitor"><title>X方向电容器</title><path style="fill:none" d="m 32,27 0,18"></path><path style="fill:none" d="m 40,27 0,18"></path><path style="fill:none" d="m 40,36 12,0"></path><path d="m 20,36 12,0" style="fill:none"></path></symbol><symbol id="ycapacitor"><title>Y方向电容器</title><path style="fill:none" d="m 27,32 18,0"></path><path style="fill:none" d="m 27,40 18,0"></path><path style="fill:none" d="m 36,40 0,12"></path><path d="m 36,20 0,12" style="fill:none"></path></symbol><symbol id="y-contactor-off"><title>Y方向接触器分</title><path style="fill:none" d="m 36,0 0,32 c 0,0 8,-2 8,-5 0,-3 -8,-4 -8,-4"></path><path style="fill:none" d="M 36,72 36,48 56,27"></path></symbol><symbol id="y-contactor-on"><title>Y方向接触器合</title><path style="fill:none" d="m 36,0 0,32 c 0,0 8,-2 8,-5 0,-3 -8,-4 -8,-4"></path><path style="fill:none" d="M 36,72 36,48 44,27"></path></symbol><symbol id="y-disconnector-off"><title>Y方向隔离刀闸分</title><path style="fill:none;" d="m 36,0 0,24"></path><path style="fill:none" d="M 36,72 36,48 52,24"></path><path style="fill:none" d="m 28,24 16,0"></path></symbol><symbol id="y-disconnector-on"><title>Y方向隔离刀闸合</title><path style="fill:none;stroke-linecap:round;" d="m 36,0 0,24"></path><path style="fill:none;stroke-linecap:round" d="m 28,24 16,0"></path><path style="fill:none;stroke-linecap:round" d="M 36,72 36,48 44,24"></path></symbol><symbol id="x-disconnector-on"><title>X方向隔离刀闸合</title><path style="fill:none;stroke-linecap:round;" d="m 0,36 24,0"></path><path style="fill:none;stroke-linecap:round" d="M 72,36 48,36 24,28"></path><path style="fill:none;stroke-linecap:round" d="M 24,44 24,28"></path></symbol><symbol id="x-disconnector-off"><title>X方向隔离刀闸分</title><path style="fill:none;" d="m 0,36 24,0"></path><path style="fill:none" d="M 72,36 48,36 24,20"></path><path style="fill:none" d="M 24,44 24,28"></path></symbol><symbol id="xswitch-off"><title>X方向开关分</title><path style="fill:none;" d="m 0,36 24,0"></path><path style="fill:none" d="M 16.243239,43.808613 31.99127,28.060582 m -15.748031,3e-6 15.748031,15.748028"></path><path style="fill:none" d="m 24,16 24,20 24,0"></path></symbol><symbol id="xswitch-on"><title>X方向开关合</title><path style="fill:none;" d="m 0,36 24,0"></path><path style="fill:none" d="M 16.243239,43.808567 31.99127,28.060536 m -15.748031,3e-6 15.748031,15.748028"></path><path style="fill:none" d="m 24,36 48,0"></path></symbol><symbol id="yswitch-on"><title>Y方向开关合</title><path style="fill:none" d="m 36.027422,21.661853 c -0.02435,16.7779 -0.04414,33.55581 -0.03583,50.33373"></path><path style="fill:none" d="m 35.991591,-0.00441843 0,21.60000143 m -7.200001,7.2 14.400002,-14.4 m -14.400002,0 14.400002,14.4"></path></symbol><symbol id="yswitch-off"><title>Y方向开关分</title><path style="fill:none" d="m 57.357469,21.662208 -21.33449,28.259314 0,22.074413"></path><path style="fill:none" d="m 36.022979,-0.00406261 0,21.59999961 m -7.2,7.2 14.4,-14.4 m -14.4,0 14.4,14.4"></path></symbol><symbol id="transformer2"><title>二绕组变压器</title><g><circle r="12" cy="27" cx="36" style="fill:none"></circle><g><path style="fill:none;stroke-width:0.5" d="m 32,30.3 4,-3 0,-4"></path><path style="fill:none;stroke-width:0.5" d="m 40,30.3 -4,-3"></path></g></g><g><circle r="12" cy="45" cx="36" style="fill:none"></circle><path d="m 32,42 8,0 -4,5 z" style="stroke-width:0.5"></path></g></symbol><symbol id="onloadtransformer2"><title>二绕组有载调压变压器</title><g><circle r="12" cy="27" cx="36" style="fill:none"></circle><g><path style="fill:none;stroke-width:0.5" d="m 33,31 3,-4 0,-4"></path><path style="fill:none;stroke-width:0.5" d="M 40,31 36,27"></path></g></g><g><circle r="12" cy="45" cx="36" style="fill:none"></circle><path d="m 32,47 8,0 -4,-5 z" style="stroke-width:0.5"></path></g><path style="fill:none;stroke-width:0.5" d="M 20,34 52,20"></path><path style="stroke-width:0.5" d="m 49,20 1,2 2,-2 z"></path></symbol><symbol id="transformer3"><title>三绕组变压器</title><g><circle r="12" cy="27.5" cx="36" style="fill:none"></circle><g><path style="fill:none;stroke-width:0.5" d="m 32,30.8 4,-3 0,-4"></path><path style="fill:none;stroke-width:0.5" d="m 40,30.8 -4,-3"></path></g></g><g><circle r="12" cy="44.5" cx="26" style="fill:none"></circle><g><path d="m 30,40.8 -4,3 0,4" style="fill:none;stroke-width:0.5"></path><path d="m 22,40.8 4,3" style="fill:none;stroke-width:0.5"></path></g></g><g><circle r="12" cy="44.5" cx="46" style="fill:none"></circle><path d="m 43,40.5 0,8 5,-4 z" style="stroke-width:0.5"></path></g></symbol><symbol id="onloadtransformer3"><title>三绕组有载调压变压器</title><g><circle r="12" cy="27.5" cx="36" style="fill:none"></circle><g><path style="fill:none;stroke-width:0.5" d="m 32,30.8 4,-3 0,-4"></path><path style="fill:none;stroke-width:0.5" d="m 40,30.8 -4,-3"></path></g></g><g><circle r="12" cy="44.5" cx="26" style="fill:none"></circle><g><path d="m 22,47.8 4,-3 0,-4" style="fill:none;stroke-width:0.5"></path><path d="m 30,47.8 -4,-3" style="fill:none;stroke-width:0.5"></path></g></g><g><circle r="12" cy="44.5" cx="46" style="fill:none"></circle><path d="m 43,40.5 0,8 5,-4 z" style="stroke-width:0.5"></path></g><g><path d="M 13,34 54,21" style="fill:none;stroke-width:0.5"></path><path d="M 49,20 50.542708,24.395821 54,21 Z" style="stroke-width:0.5"></path></g></symbol><symbol id="transformer2-1"><title>二绕组有载调压变压器</title><g><circle r="12" cy="27" cx="36" style="fill:none"></circle><g><path style="stroke-width:0.5" d="m 33,31 3,-4 0,-4"></path><path style="stroke-width:0.5" d="M 40,31 36,27"></path></g></g><g><circle r="12" cy="45" cx="36" style="fill:none"></circle><path d="m 32,47 8,0 -4,-5 z" style="stroke-width:0.5"></path></g><path style="stroke-width:0.5" d="M 20,34 52,20"></path><path style="stroke-width:0.5" d="m 49,20 1,2 2,-2 z"></path></symbol><symbol id="transformer3-1"><title>三绕组有载调压变压器</title><g><circle r="12" cy="27.5" cx="36" style="fill:none"></circle><g><path style="stroke-width:0.5" d="m 32,30.8 4,-3 0,-4"></path><path style="stroke-width:0.5" d="m 40,30.8 -4,-3"></path></g></g><g><circle r="12" cy="44.5" cx="26" style="fill:none"></circle><g><path d="m 22,47.8 4,-3 0,-4" style="stroke-width:0.5"></path><path d="m 30,47.8 -4,-3" style="stroke-width:0.5"></path></g></g><g><circle r="12" cy="44.5" cx="46" style="fill:none"></circle><path d="m 43,40.5 0,8 5,-4 z" style="stroke-width:0.5"></path></g><g><path d="M 13,34 54,21" style="stroke-width:0.5"></path><path d="M 49,20 50.542708,24.395821 54,21 Z" style="stroke-width:0.5"></path></g></symbol></defs>
<text font-size="20px" stroke="#000077" y="26.671875" x="436.33099" font-family="sans-serif" line-height="125%" fill="#000077"><tspan y="26.671875" x="436.33099">35kV接线图</tspan></text><text font-size="12.5px" stroke-width="1px" style="word-spacing:0px;letter-spacing:0px" stroke="#ff6600" y="459.62527" x="58.29459" font-family="Sans" line-height="125%" fill="#ff0000"><tspan y="459.62527" x="58.29459">至中滩110kV变电站</tspan></text><text font-size="12.5px" stroke-width="1px" style="word-spacing:0px;letter-spacing:0px" class="svg-change" click="接线图/main" stroke="#0000ff" y="459.62527" x="322.70511" font-family="Sans" line-height="125%" fill="#0000ff"><tspan y="459.62527" x="322.70511">至10kV＃1变压器</tspan></text><g stroke-width="1" class="cabinet" pointmap="yx:station:1,no:1,channel:1,rtu:1,address:1" title="1#高后备开关柜"><title>1#高后备开关柜</title><g transform="translate(1.248,5.4429)"><use y="0" title="RTU001_YX00004(1#高后备保护_小车试验位置遥信)" class="trolley" transform="translate(359.05,131.56)" height="100%" width="100%" pointmap="yx:station:1,no:4,channel:1,rtu:1,address:4" x="0" xlink:href="#trolley"><title>RTU001_YX00004(1#高后备保护_小车试验位置遥信)</title></use><use eventpoint="yk:station:1,no:1,channel:1,rtu:1,address:3073" y="0" title="RTU001_YX00001(1#高后备保护_断路器合闸位置遥信)" flash="true" transform="translate(341.05,150.11)" value="0" iv="1" click="func-yktoolbar" width="100%" pointmap="yx:station:1,no:1,channel:1,rtu:1,address:1" x="0" height="100%" class="breaker" xlink:href="#ybreaker"><title>RTU001_YX00001(1#高后备保护_断路器合闸位置遥信)</title></use></g><path d="m378.32 237.44v176" value="0" iv="1"></path><g font-size="12.5px" transform="translate(-73.017,99.906)"><text style="word-spacing:0px;letter-spacing:0px" line-height="125%" y="114.17106" x="479.99118" font-family="Sans"><tspan y="114.17106" x="479.99118" stroke-width="1">Ia:</tspan></text><text style="word-spacing:0px;letter-spacing:0px" stroke-width="1" title="RTU001_YC00001(1#高后备保护_IA)" limitstatus="0" value="0" line-height="125%" y="114.25346" pointmap="yc:station:1,no:1,channel:1,rtu:1,address:2049" x="502.78137" iv="1" class="analogtext">0.0<title>RTU001_YC00001(1#高后备保护_IA)</title></text><g transform="translate(0,-2.0183)"><text style="word-spacing:0px;letter-spacing:0px" line-height="125%" y="134.17108" x="479.99118" font-family="Sans"><tspan stroke-width="1">Ib:</tspan></text><text style="word-spacing:0px;letter-spacing:0px" stroke-width="1" title="RTU001_YC00002(1#高后备保护_IB)" flash="false" limitstatus="0" value="0" line-height="125%" y="134.25348" pointmap="yc:station:1,no:2,channel:1,rtu:1,address:2050" x="502.78137" iv="1" class="analogtext">0.0<title>RTU001_YC00002(1#高后备保护_IB)</title></text></g><text style="word-spacing:0px;letter-spacing:0px" line-height="125%" y="150.17108" x="479.99118" font-family="Sans"><tspan stroke-width="1">Ic:</tspan></text><text style="word-spacing:0px;letter-spacing:0px" stroke-width="1" title="RTU001_YC00003(1#高后备保护_IC)" limitstatus="0" value="0" line-height="125%" y="150.25348" pointmap="yc:station:1,no:3,channel:1,rtu:1,address:2051" x="502.78137" iv="1" class="analogtext">0.0<title>RTU001_YC00003(1#高后备保护_IC)</title></text></g><g transform="translate(-2.218,-12.557)"><use transform="translate(343.65,270.44)" height="100%" width="100%" y="0" x="0" xlink:href="#ct"></use><use transform="translate(394.2,270.44)" height="100%" width="100%" y="0" x="0" xlink:href="#ct"></use><use transform="translate(368.92,270.44)" height="100%" width="100%" y="0" x="0" xlink:href="#ct"></use></g><g transform="translate(-2.218,5.4429)"><use transform="translate(343.65,270.44)" height="100%" width="100%" y="0" x="0" xlink:href="#ct"></use><use transform="translate(394.2,270.44)" height="100%" width="100%" y="0" x="0" xlink:href="#ct"></use><use transform="translate(368.92,270.44)" height="100%" width="100%" y="0" x="0" xlink:href="#ct"></use></g><g transform="translate(-2.218,23.443)"><use transform="translate(343.65,270.44)" height="100%" width="100%" y="0" x="0" xlink:href="#ct"></use><use transform="translate(394.2,270.44)" height="100%" width="100%" y="0" x="0" xlink:href="#ct"></use><use transform="translate(368.92,270.44)" height="100%" width="100%" y="0" x="0" xlink:href="#ct"></use></g><g transform="translate(-2.082,41.873)"><use transform="translate(343.65,270.44)" height="100%" width="100%" y="0" x="0" xlink:href="#ct"></use><use transform="translate(394.2,270.44)" height="100%" width="100%" y="0" x="0" xlink:href="#ct"></use><use transform="translate(368.92,270.44)" height="100%" width="100%" y="0" x="0" xlink:href="#ct"></use></g><path d="m372.3 390.39h12l-6 6z" fill="none"></path><use transform="translate(331.25 417.06)" height="100%" width="100%" y="0" x="0" xlink:href="#Ground"></use><use transform="translate(307.25 345.73)" height="100%" width="100%" y="0" x="0" xlink:href="#lightning"></use><path d="m343.24 345.73h35" fill="none"></path></g><g class="cabinet" pointmap="yx:station:1,no:1,channel:1,rtu:1,address:1" title="35kVPT柜"><title>35kVPT柜</title><path d="m566.64 167.38h54.852" stroke-width="1px" fill="none"></path><path d="m622.41 244.63v36.761" stroke-width="1px" fill="none"></path><text style="word-spacing:0px;letter-spacing:0px" font-family="Sans" line-height="125%" y="246.86742" x="632.02527" stroke-width="1px"><tspan>Ua:</tspan></text><text stroke-width="1px" style="word-spacing:0px;letter-spacing:0px" line-height="125%" title="RTU001_YC00004(1#高后备保护_Uab)" limitstatus="0" value="0" class="analogtext" pointmap="yc:station:1,no:4,channel:1,rtu:1,address:2052" y="246.94981" x="656.81543" iv="1">0.0<title>RTU001_YC00004(1#高后备保护_Uab)</title></text><text style="word-spacing:0px;letter-spacing:0px" font-family="Sans" line-height="125%" y="262.8674" x="632.02527" stroke-width="1px"><tspan y="262.8674" x="632.02527">Ub:</tspan></text><text style="word-spacing:0px;letter-spacing:0px" stroke-width="1px" title="RTU001_YC00005(1#高后备保护_Ubc)" limitstatus="0" value="0" line-height="125%" pointmap="yc:station:1,no:5,channel:1,rtu:1,address:2053" y="262.9498" x="656.81543" iv="1" class="analogtext">0.0<title>RTU001_YC00005(1#高后备保护_Ubc)</title></text><text style="word-spacing:0px;letter-spacing:0px" font-family="Sans" line-height="125%" y="278.8674" x="632.02527" stroke-width="1px"><tspan>Uc:</tspan></text><text stroke-width="1px" style="word-spacing:0px;letter-spacing:0px" line-height="125%" title="RTU001_YC00006(1#高后备保护_Uca)" limitstatus="0" value="0" class="analogtext" pointmap="yc:station:1,no:6,channel:1,rtu:1,address:2054" y="278.9498" x="656.81543" iv="1">0.0<title>RTU001_YC00006(1#高后备保护_Uca)</title></text><use transform="translate(554.65,239.38)" height="100%" width="100%" y="0" x="0" stroke-width="1" xlink:href="#Ground"></use><use transform="translate(530.65,167.38)" height="100%" width="100%" y="0" x="0" stroke-width="1" xlink:href="#lightning"></use><use transform="translate(586.41,154.63)" height="100%" width="100%" y="0" x="0" stroke-width="1.5" xlink:href="#fuse"></use><use title="RTU001_YX00001(1#高后备保护_断路器合闸位置遥信)" pointmap="yx:station:1,no:1,channel:1,rtu:1,address:1" transform="translate(604.41,136.63)" height="100%" width="100%" y="0" x="0" stroke-width="1" class="trolley" xlink:href="#trolley"><title>RTU001_YX00001(1#高后备保护_断路器合闸位置遥信)</title></use><use transform="translate(556.64,328.42)" height="100%" width="100%" y="0" x="0" stroke-width="1" xlink:href="#Ground"></use><use transform="translate(586.55,264.63)" height="100%" width="100%" y="0" x="0" stroke-width="1px" xlink:href="#pt-4"></use><path d="m568.64 330.42v-28.999h28.596" stroke-width="1px" fill="none"></path></g><g class="cabinet" pointmap="yx:station:1,no:2,channel:1,rtu:1,address:2" title="35kV进线柜"><title>35kV进线柜</title><g transform="translate(-261.99,5.2696)" stroke-width="3"><use title="RTU001_YX00002(1#高后备保护_断路器分闸位置遥信)" pointmap="yx:station:1,no:2,channel:1,rtu:1,address:2" transform="translate(359.05,131.56)" height="100%" width="100%" y="0" x="0" class="trolley" xlink:href="#trolley"><title>RTU001_YX00002(1#高后备保护_断路器分闸位置遥信)</title></use><use title="RTU001_YX00002(1#高后备保护_断路器分闸位置遥信)" flash="true" pointmap="yx:station:1,no:2,channel:1,rtu:1,address:2" transform="translate(341.05,150.11)" value="0" height="100%" eventpoint="yk:station:1,no:53,channel:1,rtu:2,address:110" width="100%" y="0" x="0" iv="1" class="breaker" click="func-yktoolbar" xlink:href="#ybreaker"><title>RTU001_YX00002(1#高后备保护_断路器分闸位置遥信)</title></use></g><path d="m115.08 237.26v176" value="0" iv="1" stroke-width="3"></path><path d="m109.06 402.22h12l-6 6z" stroke-width="3" fill="none"></path><g stroke-width="3"><g transform="translate(-265.46,-12.73)"><use transform="translate(343.65,270.44)" height="100%" width="100%" y="0" x="0" xlink:href="#ct"></use><use transform="translate(394.2,270.44)" height="100%" width="100%" y="0" x="0" xlink:href="#ct"></use><use transform="translate(368.92,270.44)" height="100%" width="100%" y="0" x="0" xlink:href="#ct"></use></g><g transform="translate(-265.46,5.2696)"><use transform="translate(343.65,270.44)" height="100%" width="100%" y="0" x="0" xlink:href="#ct"></use><use transform="translate(394.2,270.44)" height="100%" width="100%" y="0" x="0" xlink:href="#ct"></use><use transform="translate(368.92,270.44)" height="100%" width="100%" y="0" x="0" xlink:href="#ct"></use></g><g transform="translate(-265.46,23.27)"><use transform="translate(343.65,270.44)" height="100%" width="100%" y="0" x="0" xlink:href="#ct"></use><use transform="translate(394.2,270.44)" height="100%" width="100%" y="0" x="0" xlink:href="#ct"></use><use transform="translate(368.92,270.44)" height="100%" width="100%" y="0" x="0" xlink:href="#ct"></use></g><g transform="translate(-265.32,41.7)"><use transform="translate(343.65,270.44)" height="100%" width="100%" y="0" x="0" xlink:href="#ct"></use><use transform="translate(394.2,270.44)" height="100%" width="100%" y="0" x="0" xlink:href="#ct"></use><use transform="translate(368.92,270.44)" height="100%" width="100%" y="0" x="0" xlink:href="#ct"></use></g></g><g stroke-width="3" transform="translate(-164.72,4.8626)"><g transform="translate(-28)"><use transform="translate(202.72,411.3)" height="100%" width="100%" y="0" x="0" xlink:href="#Ground"></use><use transform="translate(178.72,339.97)" height="100%" width="100%" y="0" x="0" xlink:href="#lightning"></use></g><g transform="translate(-261.15,44.696)"><use y="0" title="RTU001_YX00008(1#高后备保护_轻瓦斯告警遥信)" transform="translate(595.38,296)" value="0" iv="1" width="100%" pointmap="yx:station:1,no:8,channel:1,rtu:1,address:8" x="0" height="100%" class="switch" xlink:href="#y-disconnector-off"><title>RTU001_YX00008(1#高后备保护_轻瓦斯告警遥信)</title></use><use transform="translate(619.39,366.25)" height="100%" width="100%" y="0" x="0" xlink:href="#Ground" class="grounds" pointmap="yx:station:1,no:8,channel:1,rtu:1,address:8"></use></g><path fill="none" d="m186.72 340.7h183.51"></path></g><text style="word-spacing:0px;letter-spacing:0px" font-family="Sans" line-height="125%" y="211.72105" x="137.37119" stroke-width="1"><tspan y="211.72105" x="137.37119" stroke-width="1">Ia:</tspan></text><text style="word-spacing:0px;letter-spacing:0px" stroke-width="1" title="RTU001_YC00001(1#高后备保护_IA)" limitstatus="0" value="0" line-height="125%" y="211.80347" pointmap="yc:station:1,no:1,channel:1,rtu:1,address:2049" x="160.16138" iv="1" class="analogtext">0.0<title>RTU001_YC00001(1#高后备保护_IA)</title></text><g transform="translate(-342.62 95.532)" stroke-width="1"><text style="word-spacing:0px;letter-spacing:0px" line-height="125%" y="134.17108" x="479.99118" font-family="Sans"><tspan stroke-width="1">Ib:</tspan></text><text style="word-spacing:0px;letter-spacing:0px" stroke-width="1" title="RTU001_YC00002(1#高后备保护_IB)" flash="false" limitstatus="0" value="0" line-height="125%" y="134.25348" pointmap="yc:station:1,no:2,channel:1,rtu:1,address:2050" x="502.78137" iv="1" class="analogtext">0.0<title>RTU001_YC00002(1#高后备保护_IB)</title></text></g><text style="word-spacing:0px;letter-spacing:0px" font-family="Sans" line-height="125%" y="247.72108" x="137.37119" stroke-width="1"><tspan stroke-width="1">Ic:</tspan></text><text style="word-spacing:0px;letter-spacing:0px" stroke-width="1" title="RTU001_YC00001(1#高后备保护_IA)" limitstatus="0" value="0" line-height="125%" y="247.80348" pointmap="yc:station:1,no:1,channel:1,rtu:1,address:2049" x="160.16138" iv="1" class="analogtext">0.0<title>RTU001_YC00001(1#高后备保护_IA)</title></text></g><text font-size="12.5px" stroke-width="1px" style="word-spacing:0px;letter-spacing:0px" class="svg-change" click="接线图/main" stroke="#0000ff" y="460.38394" x="775.1441" font-family="Sans" line-height="125%" fill="#0000ff"><tspan y="460.38394" x="775.1441">至10kV＃2变压器</tspan></text><g class="baseline"><path d="m971.73 32.672-8 9 8 7-8 8" stroke-width="4" fill="none"></path><rect stroke-width=".87485px" fill-rule="evenodd" value="0" height="4.6918" width="952.15" y="39.584" x="11.367" iv="1"></rect><path d="m378.28 43.651v96" value="0" iv="1" stroke-width="1"></path><path d="m622.41 44.63v96" value="0" iv="1" stroke-width="1"></path><path d="m115.04 43.478v96" value="0" iv="1" stroke-width="3"></path><path d="m831.89 44.41v96" value="0" iv="1" stroke-width="1"></path></g><g class="cabinet" pointmap="yx:station:1,no:730,channel:1,rtu:10,address:1" title="2#高后备开关柜"><title>2#高后备开关柜</title><use title="RTU010_YX00732(2#高后备保护_小车工作位置遥信)" class="trolley" pointmap="yx:station:1,no:732,channel:1,rtu:10,address:3" transform="translate(813.91,137.76)" height="100%" width="100%" y="0" x="0" stroke-width="1" xlink:href="#trolley"><title>RTU010_YX00732(2#高后备保护_小车工作位置遥信)</title></use><use stroke-width="1px" flash="true" y="0" title="RTU010_YX00730(2#高后备保护_断路器合闸位置遥信)" transform="translate(795.91,156.31)" value="0" height="100%" eventpoint="yk:station:1,no:309,channel:1,rtu:10,address:3073" class="breaker" width="100%" pointmap="yx:station:1,no:730,channel:1,rtu:10,address:1" x="0" iv="1" click="func-yktoolbar" xlink:href="#ybreaker"><title>RTU010_YX00730(2#高后备保护_断路器合闸位置遥信)</title></use><path d="m831.93 238.2v176" value="0" iv="1" stroke-width="1"></path><g stroke-width="1"><g transform="translate(451.4,-11.798)"><use transform="translate(343.65,270.44)" height="100%" width="100%" y="0" x="0" xlink:href="#ct"></use><use transform="translate(394.2,270.44)" height="100%" width="100%" y="0" x="0" xlink:href="#ct"></use><use transform="translate(368.92,270.44)" height="100%" width="100%" y="0" x="0" xlink:href="#ct"></use></g><g transform="translate(451.4,6.2016)"><use transform="translate(343.65,270.44)" height="100%" width="100%" y="0" x="0" xlink:href="#ct"></use><use transform="translate(394.2,270.44)" height="100%" width="100%" y="0" x="0" xlink:href="#ct"></use><use transform="translate(368.92,270.44)" height="100%" width="100%" y="0" x="0" xlink:href="#ct"></use></g><g transform="translate(451.4,24.202)"><use transform="translate(343.65,270.44)" height="100%" width="100%" y="0" x="0" xlink:href="#ct"></use><use transform="translate(394.2,270.44)" height="100%" width="100%" y="0" x="0" xlink:href="#ct"></use><use transform="translate(368.92,270.44)" height="100%" width="100%" y="0" x="0" xlink:href="#ct"></use></g><g transform="translate(451.53,42.632)"><use transform="translate(343.65,270.44)" height="100%" width="100%" y="0" x="0" xlink:href="#ct"></use><use transform="translate(394.2,270.44)" height="100%" width="100%" y="0" x="0" xlink:href="#ct"></use><use transform="translate(368.92,270.44)" height="100%" width="100%" y="0" x="0" xlink:href="#ct"></use></g></g><path d="m825.91 391.15h12l-6 6z" stroke-width="1" fill="none"></path><g transform="translate(582.14,6.5179)" stroke-width="1"><use transform="translate(202.72,411.3)" height="100%" width="100%" y="0" x="0" xlink:href="#Ground"></use><use transform="translate(178.72,339.97)" height="100%" width="100%" y="0" x="0" xlink:href="#lightning"></use></g><path d="m796.85 346.49h35" stroke-width="1" fill="none"></path><g font-size="12.5px" transform="translate(374.18,95.188)" stroke-width="1"><text style="word-spacing:0px;letter-spacing:0px" line-height="125%" y="114.17106" x="479.99118" font-family="Sans"><tspan y="114.17106" x="479.99118" stroke-width="1">Ia:</tspan></text><text style="word-spacing:0px;letter-spacing:0px" stroke-width="1" title="RTU010_YC00164(2#高后备保护_IA)" limitstatus="0" value="0" line-height="125%" y="114.25346" pointmap="yc:station:1,no:164,channel:1,rtu:10,address:2049" x="502.78137" iv="1" class="analogtext">0.0<title>RTU010_YC00164(2#高后备保护_IA)</title></text><g transform="translate(0,-2.0183)"><text style="word-spacing:0px;letter-spacing:0px" line-height="125%" y="134.17108" x="479.99118" font-family="Sans"><tspan stroke-width="1">Ib:</tspan></text><text style="word-spacing:0px;letter-spacing:0px" stroke-width="1" title="RTU010_YC00165(2#高后备保护_IB)" flash="false" limitstatus="0" value="0" line-height="125%" y="134.25348" pointmap="yc:station:1,no:165,channel:1,rtu:10,address:2050" x="502.78137" iv="1" class="analogtext">0.0<title>RTU010_YC00165(2#高后备保护_IB)</title></text></g><text style="word-spacing:0px;letter-spacing:0px" line-height="125%" y="150.17108" x="479.99118" font-family="Sans"><tspan stroke-width="1">Ic:</tspan></text><text style="word-spacing:0px;letter-spacing:0px" stroke-width="1" title="RTU010_YC00166(2#高后备保护_IC)" limitstatus="0" value="0" line-height="125%" y="150.25348" pointmap="yc:station:1,no:166,channel:1,rtu:10,address:2051" x="502.78137" iv="1" class="analogtext">0.0<title>RTU010_YC00166(2#高后备保护_IC)</title></text></g></g></svg>
