<?xml version="1.0" encoding="UTF-8" standalone="no"?>
<svg xmlns:xlink="http://www.w3.org/1999/xlink" xmlns="http://www.w3.org/2000/svg" width="100%" height="100%" style="fill:#d3d3d3;stroke:#000000;stroke-width:1px" viewBox="0 0 506.46297 282">
  <defs><symbol id="xbreaker"><title>X方向断路器</title><path style="fill:none;stroke:black" d="m 0,36 c 18,0 18,0 18,0"/><path style="fill:none;stroke:black" d="m 54,36 c 18,0 18,0 18,0"/><rect width="36" height="18" x="18" y="27" style="stroke:black"/></symbol><symbol id="ybreaker"><title>Y方向断路器</title><path style="fill:none;stroke:black" d="m 36,0 c 0,18 0,18 0,18"/><path style="fill:none;stroke:black" d="m 36,54 c 0,18 0,18 0,18"/><rect width="18" height="36" x="27" y="18" style="stroke:black"/></symbol><symbol id="ac-motor"><title>交流电动机</title><circle style="fill:none" cx="24" cy="24" r="22"/><circle r="19" cy="24" cx="24" style="fill:none"/><path style="fill:none;stroke-width:0.5" d="m 15,36 c 0,0 2,-4 5,-4 3,0 4,4 7,4 3,0 5.5,-4 5.5,-4"/><path style="fill:none;stroke-width:0.8" d="m 18,24 0,-10 6,6 6,-6 0,10"/></symbol><symbol id="Ground"><title>接地</title><path d="m 12,0 0,12" style="fill:none;stroke:black"/><path d="m 0,12 24,0" style="fill:none"/><path d="m 4,15 16,0" style="fill:none"/><path d="m 8,18 8,0" style="fill:none"/></symbol><symbol id="cable-terminal"><title>电缆终端头</title><path style="fill:none" d="m 6,8 12,0 -6,8 z"/><path style="fill:none" d="m 12,0 0,24"/></symbol><symbol id="spark-gap"><title>火花间隙</title><path d="m 9,4 3,6 3,-6 z"/><path d="m 12,14 -3,6 6,0 z"/><path d="m 12,1 0,3"/><path d="m 12,23 0,-3"/></symbol><symbol id="reactor"><title>电抗器</title><path style="fill:none" d="M 36,47.5 36,60 m 0,-48 0,24 -12.50,0 M 36,48 A 12,12 0 1 0 24,36"/></symbol><symbol id="arc-suppression-coil"><title>消弧线圈</title><rect style="fill:none" width="18" height="36" x="23" y="14"/><path style="fill:none;stroke-width:0.5px" d="m 18,46 0,-6 28,-16 0,-6"/><path style="fill:none" d="m 32,8 0,6"/><path style="fill:none" d="m 32,56 0,-6"/></symbol><symbol id="capacitor-bank"><title>电容器组</title><path style="fill:none" d="m 36,18 0,18"/><path style="fill:none" d="m 18,27 0,9 36,0 0,-9"/></symbol><symbol id="trolley"><title>手车</title><path style="fill:none;stroke:black" d="m 18,0 0,13"/><path style="fill:none;stroke:black" d="M 18,108 18,95"/><path style="fill:none" d="m 8,23 10,-5 10,5"/><path style="fill:none" d="m 8,18 10,-5 10,5"/><path style="fill:none" d="m 8,85 10,5 10,-5"/><path style="fill:none" d="m 8,90 10,5 10,-5"/></symbol><symbol id="zero-sequence-current"><title>零序电流</title><circle cx="36" cy="36" r="12" style="fill:none"/><path style="fill:none" d="m 30,16 0,40"/><path style="fill:none" d="m 36,16 0,40"/><path style="fill:none" d="m 42,16 0,40"/></symbol><symbol id="ct"><title>电流互感器</title><circle r="6" cy="9" cx="12" style="fill:none"/><path style="fill:none" d="m 12,0 0,18"/><path style="fill:none;stroke-width:0.5px" d="M 18,9 30,9"/><path style="fill:none;stroke-width:0.5px" d="M 19,12 25,6"/><path style="fill:none;stroke-width:0.5px" d="m 30,6 -6,6"/></symbol><symbol id="pt"><title>电压互感器</title><circle cx="36" cy="31" r="12" style="fill:none"/><circle cx="28" cy="41" r="12" style="fill:none"/><circle cx="44" cy="41" r="12" style="fill:none"/></symbol><symbol id="pt-4"><title>电压互感器-4</title><circle style="fill:none" cx="22" cy="36" r="12"/><circle style="fill:none" cx="50" cy="36" r="12"/><circle r="12" cy="28" cx="36" style="fill:none"/><circle style="fill:none" cx="36" cy="44" r="12"/></symbol><symbol id="fuse"><title>熔断器</title><rect style="fill:none" width="18" height="36" x="27" y="18"/><path style="fill:none" d="M 36,0 36,72"/></symbol><symbol id="xlamp"><title>X方向信号灯</title><circle cx="36" cy="36" r="12" style="stroke:black"/><path style="fill:none;stroke:black" d="m 12,36 12,0"/><path d="m 48,36 12,0" style="fill:none;stroke:black"/><path style="fill:none;stroke:black" d="m 27.5,27.5 17,17"/><path d="m 44.5,27.5 -17,17" style="fill:none;stroke:black"/></symbol><symbol id="ylamp"><title>Y方向信号灯</title><circle cx="36" cy="36" r="12" style="stroke:black"/><path style="fill:none;stroke:black" d="m 36,12 0,12"/><path d="m 36,48 0,12" style="fill:none;stroke:black"/><path style="fill:none;stroke:black" d="m 27.5,27.5 17,17"/><path d="m 44.5,27.5 -17,17" style="fill:none;stroke:black"/></symbol><symbol id="lightning"><title>避雷器</title><rect style="fill:none" width="18" height="36" x="27" y="18"/><path style="fill:none" d="m 30,24 12,0 -6,16 z"/><path style="fill:none" d="M 36,0 36,24"/><path style="fill:none" d="m 36,54 0,18"/></symbol><symbol id="xcapacitor"><title>X方向电容器</title><path style="fill:none" d="m 32,27 0,18"/><path style="fill:none" d="m 40,27 0,18"/><path style="fill:none" d="m 40,36 12,0"/><path d="m 20,36 12,0" style="fill:none"/></symbol><symbol id="ycapacitor"><title>Y方向电容器</title><path style="fill:none" d="m 27,32 18,0"/><path style="fill:none" d="m 27,40 18,0"/><path style="fill:none" d="m 36,40 0,12"/><path d="m 36,20 0,12" style="fill:none"/></symbol><symbol id="y-contactor-off"><title>Y方向接触器分</title><path style="fill:none" d="m 36,0 0,32 c 0,0 8,-2 8,-5 0,-3 -8,-4 -8,-4"/><path style="fill:none" d="M 36,72 36,48 56,27"/></symbol><symbol id="y-contactor-on"><title>Y方向接触器合</title><path style="fill:none" d="m 36,0 0,32 c 0,0 8,-2 8,-5 0,-3 -8,-4 -8,-4"/><path style="fill:none" d="M 36,72 36,48 44,27"/></symbol><symbol id="y-disconnector-off"><title>Y方向隔离刀闸分</title><path style="fill:none;stroke:black" d="m 36,0 0,24"/><path style="fill:none" d="M 36,72 36,48 52,24"/><path style="fill:none" d="m 28,24 16,0"/></symbol><symbol id="y-disconnector-on"><title>Y方向隔离刀闸合</title><path style="fill:none;stroke-linecap:round;stroke:black" d="m 36,0 0,24"/><path style="fill:none;stroke-linecap:round" d="m 28,24 16,0"/><path style="fill:none;stroke-linecap:round" d="M 36,72 36,48 44,24"/></symbol><symbol id="x-disconnector-on"><title>X方向隔离刀闸合</title><path style="fill:none;stroke-linecap:round;stroke:black" d="m 0,36 24,0"/><path style="fill:none;stroke-linecap:round" d="M 72,36 48,36 24,28"/><path style="fill:none;stroke-linecap:round" d="M 24,44 24,28"/></symbol><symbol id="x-disconnector-off"><title>X方向隔离刀闸分</title><path style="fill:none;stroke:black" d="m 0,36 24,0"/><path style="fill:none" d="M 72,36 48,36 24,20"/><path style="fill:none" d="M 24,44 24,28"/></symbol><symbol id="xswitch-off"><title>X方向开关分</title><path style="fill:none;stroke:black" d="m 0,36 24,0"/><path style="fill:none" d="M 16.243239,43.808613 31.99127,28.060582 m -15.748031,3e-6 15.748031,15.748028"/><path style="fill:none" d="m 24,16 24,20 24,0"/></symbol><symbol id="xswitch-on"><title>X方向开关合</title><path style="fill:none;stroke:black" d="m 0,36 24,0"/><path style="fill:none" d="M 16.243239,43.808567 31.99127,28.060536 m -15.748031,3e-6 15.748031,15.748028"/><path style="fill:none" d="m 24,36 48,0"/></symbol><symbol id="yswitch-on"><title>Y方向开关合</title><path style="fill:none" d="m 36.027422,21.661853 c -0.02435,16.7779 -0.04414,33.55581 -0.03583,50.33373"/><path style="fill:none" d="m 35.991591,-0.00441843 0,21.60000143 m -7.200001,7.2 14.400002,-14.4 m -14.400002,0 14.400002,14.4"/></symbol><symbol id="yswitch-off"><title>Y方向开关分</title><path style="fill:none" d="m 57.357469,21.662208 -21.33449,28.259314 0,22.074413"/><path style="fill:none" d="m 36.022979,-0.00406261 0,21.59999961 m -7.2,7.2 14.4,-14.4 m -14.4,0 14.4,14.4"/></symbol><symbol id="transformer2"><title>二绕组变压器</title><g><circle r="12" cy="27" cx="36" style="fill:none"/><g><path style="stroke-width:0.5" d="m 32,30.3 4,-3 0,-4"/><path style="stroke-width:0.5" d="m 40,30.3 -4,-3"/></g></g><g><circle r="12" cy="45" cx="36" style="fill:none"/><path d="m 32,42 8,0 -4,5 z" style="stroke-width:0.5"/></g></symbol><symbol id="onloadtransformer2"><title>二绕组有载调压变压器</title><g><circle r="12" cy="27" cx="36" style="fill:none"/><g><path style="stroke-width:0.5" d="m 33,31 3,-4 0,-4"/><path style="stroke-width:0.5" d="M 40,31 36,27"/></g></g><g id="g50452"><circle r="12" cy="45" cx="36" style="fill:none" id="circle50454"/><path d="m 32,47 8,0 -4,-5 z" style="stroke-width:0.5" id="path50456"/></g><path style="stroke-width:0.5" d="M 20,34 52,20" id="path50458"/><path style="stroke-width:0.5" d="m 49,20 1,2 2,-2 z" id="path50460"/></symbol><symbol id="transformer3"><title>三绕组变压器</title><g><circle r="12" cy="27.5" cx="36" style="fill:none"/><g><path style="stroke-width:0.5" d="m 32,30.8 4,-3 0,-4"/><path style="stroke-width:0.5" d="m 40,30.8 -4,-3"/></g></g><g><circle r="12" cy="44.5" cx="26" style="fill:none"/><g><path d="m 30,40.8 -4,3 0,4" style="stroke-width:0.5"/><path d="m 22,40.8 4,3" style="stroke-width:0.5"/></g></g><g><circle r="12" cy="44.5" cx="46" style="fill:none"/><path d="m 43,40.5 0,8 5,-4 z" style="stroke-width:0.5"/></g></symbol><symbol id="onloadtransformer3"><title>三绕组有载调压变压器</title><g><circle r="12" cy="27.5" cx="36" style="fill:none"/><g><path style="stroke-width:0.5" d="m 32,30.8 4,-3 0,-4"/><path style="stroke-width:0.5" d="m 40,30.8 -4,-3"/></g></g><g><circle r="12" cy="44.5" cx="26" style="fill:none"/><g><path d="m 22,47.8 4,-3 0,-4" style="stroke-width:0.5"/><path d="m 30,47.8 -4,-3" style="stroke-width:0.5"/></g></g><g><circle r="12" cy="44.5" cx="46" style="fill:none"/><path d="m 43,40.5 0,8 5,-4 z" style="stroke-width:0.5"/></g><g><path d="M 13,34 54,21" style="stroke-width:0.5"/><path d="M 49,20 50.542708,24.395821 54,21 Z" style="stroke-width:0.5"/></g></symbol><symbol id="transformer2-1"><title>二绕组有载调压变压器</title><g><circle r="12" cy="27" cx="36" style="fill:none"/><g><path style="stroke-width:0.5" d="m 33,31 3,-4 0,-4"/><path style="stroke-width:0.5" d="M 40,31 36,27"/></g></g><g><circle r="12" cy="45" cx="36" style="fill:none"/><path d="m 32,47 8,0 -4,-5 z" style="stroke-width:0.5"/></g><path style="stroke-width:0.5" d="M 20,34 52,20"/><path style="stroke-width:0.5" d="m 49,20 1,2 2,-2 z"/></symbol><symbol id="transformer3-1"><title>三绕组有载调压变压器</title><g><circle r="12" cy="27.5" cx="36" style="fill:none"/><g><path style="stroke-width:0.5" d="m 32,30.8 4,-3 0,-4"/><path style="stroke-width:0.5" d="m 40,30.8 -4,-3"/></g></g><g><circle r="12" cy="44.5" cx="26" style="fill:none"/><g><path d="m 22,47.8 4,-3 0,-4" style="stroke-width:0.5"/><path d="m 30,47.8 -4,-3" style="stroke-width:0.5"/></g></g><g><circle r="12" cy="44.5" cx="46" style="fill:none"/><path d="m 43,40.5 0,8 5,-4 z" style="stroke-width:0.5"/></g><g><path d="M 13,34 54,21" style="stroke-width:0.5"/><path d="M 49,20 50.542708,24.395821 54,21 Z" style="stroke-width:0.5"/></g></symbol></defs>
<g transform="translate(10.5,271.5)" class="graph"><title>nav</title><g class="node"><title>nav</title><polygon points="0 -100 73 -100 73 -136 0 -136" stroke="#00f" fill="#808080"/><text font-size="14px" style="text-anchor:middle" y="-114.3" x="36.5" font-family="'仿宋'" fill="#0000ff">图形导航</text></g><g class="node"><title>substation</title><ellipse rx="47.392" ry="18" stroke="#00f" cy="-218" cx="184.39" fill="#808080"/><text font-size="14px" style="text-anchor:middle" y="-214.3" x="184.39301" font-family="'仿宋'" fill="#0000ff">主接线图</text></g><g class="edge"><title>nav-&gt;substation</title><path d="m54.05-136.16c21.457-22.19 54.95-56.84 54.95-56.84s20.04-6.65 39.46-13.09" stroke="#00f" stroke-width="2" fill="none"/></g><g class="svg-change" click="网络拓扑图/网络拓扑图"><title>nettopol</title><ellipse opacity=".5" rx="57.39" ry="18" stroke="#00f" cy="-168" cx="184.39" fill="#008000"/><text font-size="14px" style="text-anchor:middle" stroke="#0000ba" font-family="'仿宋'" y="-164.3" x="184.39301" stroke-width=".37795" fill="#0000ba">网络拓扑图</text></g><g class="edge"><title>nav-&gt;nettopol</title><path d="m73.175-130.65c17.982-6.2 35.825-12.35 35.825-12.35s17.69-5.86 35.93-11.91" stroke="#00f" stroke-width="2" fill="none"/></g><g class="svg-change" click="实时报表/实时报表"><title>rtreport</title><ellipse opacity=".5" rx="47.392" ry="18" stroke="#00f" cy="-118" cx="184.39" fill="#008000"/><text font-size="14px" style="text-anchor:middle" stroke="#0000ba" font-family="'仿宋'" y="-114.3" x="184.39301" stroke-width=".37795" fill="#0000ba">实时报表</text></g><g class="edge"><title>nav-&gt;rtreport</title><path d="m73.058-118h63.752" stroke="#00f" stroke-width="2" fill="none"/></g><g class="node"><title>hierarchy</title><ellipse rx="66.089" ry="18" stroke="#00f" cy="-68" cx="184.39" fill="#808080"/><text font-size="14px" style="text-anchor:middle" y="-64.300003" x="184.39301" font-family="'仿宋'" fill="#0000ff">公司组织结构</text></g><g class="edge"><title>nav-&gt;hierarchy</title><path d="m73.175-105.35c17.982 6.197 35.825 12.35 35.825 12.35s16.02 5.312 33.29 11.038" stroke="#00f" stroke-width="2" fill="none"/></g><g class="node"><title>layout</title><ellipse rx="75.287" ry="18" stroke="#00f" cy="-18" cx="184.39" fill="#808080"/><text font-size="14px" style="text-anchor:middle" y="-14.3" x="184.39301" font-family="'仿宋'" fill="#0000ff">公司平面分布图</text></g><g class="edge"><title>nav-&gt;layout</title><path d="m54.05-99.845c21.457 22.197 54.95 56.845 54.95 56.845s14.69 4.871 31.1 10.313" stroke="#00f" stroke-width="2" fill="none"/></g><g class="svg-change" click="接线图/35KV"><title>substation_35</title><ellipse opacity=".5" rx="94.783" ry="18" stroke="#0101ff" cy="-243" cx="390.68" fill="#008000"/><text font-size="14px" style="text-anchor:middle" stroke="#0000ba" font-family="'仿宋'" y="-239.3" x="390.67801" stroke-width=".37795" fill="#0000ba">35kV变电站主接线图</text></g><g class="edge"><title>substation-&gt;substation_35</title><path d="m229.66-223.49c23.72-2.87 53.48-6.48 80.94-9.81" stroke="#00f" stroke-width="2" fill="none"/></g><g class="svg-change" click="接线图/main"><title>substation_10</title><ellipse opacity=".5" rx="94.783" ry="18" stroke="#00f" cy="-193" cx="390.68" fill="#008000"/><text font-size="14px" style="text-anchor:middle" stroke="#0000ba" font-family="'仿宋'" y="-189.3" x="390.67801" stroke-width=".37795" fill="#0000ba">10kV变电站主接线图</text></g><g class="edge"><title>substation-&gt;substation_10</title><path d="m229.66-212.51c23.72 2.87 53.48 6.48 80.94 9.81" stroke="#00f" stroke-width="2" fill="none"/></g></g></svg>
